<?xml version="1.0" standalone="no"?>
<!DOCTYPE svg PUBLIC "-//W3C//DTD SVG 20010904//EN"
 "http://www.w3.org/TR/2001/REC-SVG-20010904/DTD/svg10.dtd">
<svg version="1.0" xmlns="http://www.w3.org/2000/svg"
 width="90.000000pt" height="90.000000pt" viewBox="0 0 90.000000 90.000000"
 preserveAspectRatio="xMidYMid meet">

<g transform="translate(0.000000,90.000000) scale(0.100000,-0.100000)"
fill="#000000" stroke="none">
<path d="M400 850 c0 -11 -7 -20 -15 -20 -26 0 -16 -28 20 -56 43 -33 39 -45
-5 -14 -26 19 -33 20 -48 9 -9 -7 -18 -14 -20 -15 -2 -1 6 -12 17 -23 16 -16
29 -19 53 -15 25 4 29 3 18 -5 -8 -6 -22 -11 -30 -11 -13 0 -50 -33 -50 -44 0
-2 14 -6 31 -10 25 -5 35 -1 55 22 l26 27 -17 -30 c-13 -24 -14 -36 -6 -58
l11 -27 21 21 c15 15 20 30 17 50 -6 37 0 37 13 2 8 -24 47 -53 69 -53 4 0 7
13 7 29 0 22 -8 32 -34 46 -18 10 -31 20 -29 22 2 3 18 -3 35 -11 37 -20 51
-20 51 -2 0 7 10 21 23 29 l22 16 -22 7 c-13 3 -23 13 -23 20 0 18 -3 18 -50
-6 -48 -25 -51 -16 -8 20 30 25 31 28 18 57 -11 25 -19 31 -40 28 -24 -2 -25
-5 -25 -76 0 -59 -3 -74 -15 -74 -8 0 -16 10 -18 23 -2 12 0 22 5 22 4 0 6 24
5 54 -3 46 -7 55 -25 60 -34 9 -37 8 -37 -14z"/>
<path d="M225 647 c-11 -7 -21 -13 -23 -14 -2 -1 2 -11 8 -23 10 -19 10 -20
-9 -8 -16 9 -23 10 -32 1 -15 -15 10 -43 38 -43 14 -1 12 -4 -8 -15 -15 -8
-29 -23 -32 -35 -4 -17 0 -20 23 -20 17 0 34 9 44 23 l17 22 -12 -24 c-9 -18
-8 -25 2 -32 19 -12 52 -11 44 1 -3 6 -1 10 5 10 6 0 9 4 6 9 -4 5 7 12 24 16
34 7 35 12 15 39 -8 11 -20 16 -30 12 -9 -3 -13 -2 -10 4 3 6 13 10 20 10 12
0 35 28 35 43 0 8 -43 -5 -57 -16 -9 -7 -13 -5 -13 7 0 9 -4 16 -10 16 -5 0
-10 7 -10 15 0 18 -8 18 -35 2z m45 -86 c0 -6 -4 -13 -10 -16 -5 -3 -10 1 -10
9 0 9 5 16 10 16 6 0 10 -4 10 -9z"/>
<path d="M495 539 c-11 -6 -30 -23 -42 -37 l-22 -26 -31 29 -30 29 11 -32 c10
-30 49 -64 49 -44 0 5 14 15 30 22 17 7 38 26 46 41 8 16 13 29 12 29 -2 0
-12 -5 -23 -11z"/>
<path d="M572 500 c-7 -12 -17 -18 -23 -15 -6 4 -9 -11 -7 -43 2 -39 6 -48 19
-45 9 3 20 0 23 -6 11 -18 21 -13 40 20 23 39 14 48 -27 24 l-32 -19 17 26
c11 17 15 34 10 52 -7 25 -7 26 -20 6z"/>
<path d="M361 434 c1 -22 8 -49 15 -60 13 -22 13 -22 -33 -8 -65 20 -84 17
-43 -6 19 -11 53 -19 74 -20 37 0 38 1 23 18 -10 11 -17 35 -17 60 0 22 -5 44
-11 48 -7 4 -10 -7 -8 -32z"/>
<path d="M763 412 c-24 -18 -17 -52 7 -37 8 5 11 4 6 -3 -3 -6 -1 -14 5 -18 7
-4 9 -3 6 2 -3 6 -2 16 4 24 7 12 9 11 9 -4 0 -11 2 -17 5 -14 7 6 -6 68 -14
68 -3 0 -16 -8 -28 -18z"/>
<path d="M132 398 c-6 -6 -12 -23 -13 -37 0 -24 -1 -24 -8 -6 -6 14 -19 21
-41 23 -28 2 -31 0 -25 -18 4 -13 0 -31 -9 -45 -15 -23 -15 -25 5 -35 16 -9
26 -8 47 6 l26 17 -21 -27 c-12 -14 -19 -35 -16 -45 5 -19 5 -19 24 0 10 10
19 32 19 49 0 17 9 37 21 48 16 16 19 26 12 51 -7 25 -11 29 -21 19z"/>
<path d="M431 394 c0 -11 3 -14 6 -6 3 7 2 16 -1 19 -3 4 -6 -2 -5 -13z"/>
<path d="M480 355 c0 -30 4 -55 9 -55 14 0 17 15 13 65 -6 64 -22 56 -22 -10z"/>
<path d="M837 390 c-16 -24 -16 -26 0 -37 34 -25 47 -11 29 31 l-12 30 -17
-24z"/>
<path d="M720 356 c0 -8 -3 -21 -6 -30 -5 -12 0 -16 22 -16 23 0 26 2 14 10
-17 11 -9 13 14 4 13 -5 14 -9 4 -21 -20 -25 -18 -44 8 -54 14 -5 27 -9 30 -9
9 0 3 22 -10 36 -11 11 -16 11 -19 1 -4 -9 -6 -9 -6 0 -1 18 36 36 41 21 3 -9
6 -9 12 1 5 8 1 14 -13 18 -12 3 -21 10 -21 16 0 6 -3 8 -6 5 -3 -4 -14 2 -25
13 -22 22 -39 25 -39 5z"/>
<path d="M190 343 c0 -5 14 -24 31 -43 l30 -35 -21 43 c-18 37 -41 56 -40 35z"/>
<path d="M441 324 c0 -11 3 -14 6 -6 3 7 2 16 -1 19 -3 4 -6 -2 -5 -13z"/>
<path d="M832 313 c0 -5 -2 -16 -7 -26 -10 -25 -1 -31 24 -15 25 15 27 33 5
42 -20 8 -24 8 -22 -1z"/>
<path d="M437 283 c10 -18 20 -28 22 -22 2 6 -6 21 -19 33 l-21 21 18 -32z"/>
<path d="M502 289 c-18 -12 -31 -23 -29 -25 7 -7 75 17 87 31 19 23 -18 19
-58 -6z"/>
<path d="M588 272 c-10 -17 -17 -47 -17 -69 l2 -38 7 40 c7 37 7 37 10 10 2
-28 2 -28 11 10 6 22 8 48 7 58 -2 15 -6 13 -20 -11z"/>
<path d="M321 290 c-7 -14 -5 -88 2 -81 5 5 7 26 4 47 -2 22 -5 37 -6 34z"/>
<path d="M465 220 c-4 -17 -5 -34 -2 -36 2 -3 7 10 11 27 8 42 0 50 -9 9z"/>
<path d="M205 230 c-4 -6 8 -10 30 -10 22 0 34 4 30 10 -3 6 -17 10 -30 10
-13 0 -27 -4 -30 -10z"/>
<path d="M635 170 c-16 -7 -10 -9 25 -11 l45 -2 -35 -7 c-30 -6 -31 -8 -9 -9
15 0 41 2 58 5 29 6 30 8 14 20 -20 15 -68 17 -98 4z"/>
<path d="M265 160 c-3 -5 2 -10 12 -10 10 0 36 -3 58 -6 l40 -5 -40 15 c-47
18 -62 20 -70 6z"/>
<path d="M463 125 c0 -27 2 -38 4 -22 2 15 2 37 0 50 -2 12 -4 0 -4 -28z"/>
</g>
</svg>
